<svg width="512" height="512" version="1.1" xmlns="http://www.w3.org/2000/svg" desc="Created with imagetracer.js version 1.2.6" ><path fill="rgb(165,93,40)" stroke="rgb(165,93,40)" stroke-width="1" opacity="0.803921568627451" d="M 217.5 42 L 218.5 44 L 217.5 42 Z " /><path fill="rgb(165,93,40)" stroke="rgb(165,93,40)" stroke-width="1" opacity="0.803921568627451" d="M 347.5 42 L 349.5 45 L 347.5 42 Z " /><path fill="rgb(165,93,40)" stroke="rgb(165,93,40)" stroke-width="1" opacity="0.803921568627451" d="M 291.5 43 L 288.5 47 L 291.5 43 Z " /><path fill="rgb(165,93,40)" stroke="rgb(165,93,40)" stroke-width="1" opacity="0.803921568627451" d="M 357.5 53 L 358.5 55 L 357.5 53 Z " /><path fill="rgb(165,93,40)" stroke="rgb(165,93,40)" stroke-width="1" opacity="0.803921568627451" d="M 270.5 91 L 271 95.5 L 270 95.5 L 270.5 91 Z " /><path fill="rgb(165,93,40)" stroke="rgb(165,93,40)" stroke-width="1" opacity="0.803921568627451" d="M 356.5 134 L 355.5 136 L 356.5 134 Z " /><path fill="rgb(165,93,40)" stroke="rgb(165,93,40)" stroke-width="1" opacity="0.803921568627451" d="M 285.5 136 L 286.5 138 L 285.5 136 Z " /><path fill="rgb(165,93,40)" stroke="rgb(165,93,40)" stroke-width="1" opacity="0.803921568627451" d="M 156.5 137 L 160.5 142 L 156.5 137 Z " /><path fill="rgb(165,93,40)" stroke="rgb(165,93,40)" stroke-width="1" opacity="0.803921568627451" d="M 223.5 138 L 220.5 142 L 223.5 138 Z " /><path fill="rgb(165,93,40)" stroke="rgb(165,93,40)" stroke-width="1" opacity="0.803921568627451" d="M 352.5 139 L 351.5 141 L 352.5 139 Z " /><path fill="rgb(165,93,40)" stroke="rgb(165,93,40)" stroke-width="1" opacity="0.803921568627451" d="M 402.5 139 L 408 139.5 L 402.5 140 L 402.5 139 Z " /><path fill="rgb(165,93,40)" stroke="rgb(165,93,40)" stroke-width="1" opacity="0.803921568627451" d="M 409.5 139 L 414 139.5 L 409.5 140 L 409.5 139 Z " /><path fill="rgb(165,93,40)" stroke="rgb(165,93,40)" stroke-width="1" opacity="0.803921568627451" d="M 289.5 140 L 291.5 143 L 289.5 140 Z " /><path fill="rgb(165,93,40)" stroke="rgb(165,93,40)" stroke-width="1" opacity="0.803921568627451" d="M 347.5 143 L 345.5 146 L 347.5 143 Z " /><path fill="rgb(165,93,40)" stroke="rgb(165,93,40)" stroke-width="1" opacity="0.803921568627451" d="M 295.5 145 L 296.5 147 L 295.5 145 Z " /><path fill="rgb(165,93,40)" stroke="rgb(165,93,40)" stroke-width="1" opacity="0.803921568627451" d="M 79.5 146 L 78.5 148 L 79.5 146 Z " /><path fill="rgb(165,93,40)" stroke="rgb(165,93,40)" stroke-width="1" opacity="0.803921568627451" d="M 300.5 148 L 303 149.5 L 301.5 150 L 300.5 148 Z " /><path fill="rgb(165,93,40)" stroke="rgb(165,93,40)" stroke-width="1" opacity="0.803921568627451" d="M 434.5 148 L 442.5 157 L 434.5 148 Z " /><path fill="rgb(165,93,40)" stroke="rgb(165,93,40)" stroke-width="1" opacity="0.803921568627451" d="M 135.5 152 L 136.5 154 L 135.5 152 Z " /><path fill="rgb(165,93,40)" stroke="rgb(165,93,40)" stroke-width="1" opacity="0.803921568627451" d="M 188.5 153 L 193 153.5 L 188.5 154 L 188.5 153 Z " /><path fill="rgb(165,93,40)" stroke="rgb(165,93,40)" stroke-width="1" opacity="0.803921568627451" d="M 371.5 158 L 370.5 160 L 371.5 158 Z " /><path fill="rgb(165,93,40)" stroke="rgb(165,93,40)" stroke-width="1" opacity="0.803921568627451" d="M 358.5 190 L 359 192.5 L 358 192.5 L 358.5 190 Z " /><path fill="rgb(165,93,40)" stroke="rgb(165,93,40)" stroke-width="1" opacity="0.803921568627451" d="M 153.5 191 L 154 194.5 L 153 194.5 L 153.5 191 Z " /><path fill="rgb(165,93,40)" stroke="rgb(165,93,40)" stroke-width="1" opacity="0.803921568627451" d="M 54.5 194 L 55 202.5 L 54 202.5 L 54.5 194 Z " /><path fill="rgb(165,93,40)" stroke="rgb(165,93,40)" stroke-width="1" opacity="0.803921568627451" d="M 358.5 207 L 359 209.5 L 358 209.5 L 358.5 207 Z " /><path fill="rgb(165,93,40)" stroke="rgb(165,93,40)" stroke-width="1" opacity="0.803921568627451" d="M 63.5 234 L 64.5 236 L 63.5 234 Z " /><path fill="rgb(165,93,40)" stroke="rgb(165,93,40)" stroke-width="1" opacity="0.803921568627451" d="M 231.5 239 L 234 239.5 L 231.5 240 L 231.5 239 Z " /><path fill="rgb(165,93,40)" stroke="rgb(165,93,40)" stroke-width="1" opacity="0.803921568627451" d="M 68.5 241 L 69.5 243 L 68.5 241 Z " /><path fill="rgb(165,93,40)" stroke="rgb(165,93,40)" stroke-width="1" opacity="0.803921568627451" d="M 372.5 242 L 374.5 245 L 372.5 242 Z " /><path fill="rgb(165,93,40)" stroke="rgb(165,93,40)" stroke-width="1" opacity="0.803921568627451" d="M 378.5 248 L 379.5 250 L 378.5 248 Z " /><path fill="rgb(165,93,40)" stroke="rgb(165,93,40)" stroke-width="1" opacity="0.803921568627451" d="M 76.5 249 L 77.5 251 L 76.5 249 Z " /><path fill="rgb(165,93,40)" stroke="rgb(165,93,40)" stroke-width="1" opacity="0.803921568627451" d="M 301.5 249 L 299.5 252 L 301.5 249 Z " /><path fill="rgb(165,93,40)" stroke="rgb(165,93,40)" stroke-width="1" opacity="0.803921568627451" d="M 100.5 259 L 103 259.5 L 100.5 260 L 100.5 259 Z " /><path fill="rgb(165,93,40)" stroke="rgb(165,93,40)" stroke-width="1" opacity="0.803921568627451" d="M 105.5 259 L 109 259.5 L 105.5 260 L 105.5 259 Z " /><path fill="rgb(165,93,40)" stroke="rgb(165,93,40)" stroke-width="1" opacity="0.803921568627451" d="M 356.5 278 L 358.5 281 L 356.5 278 Z " /><path fill="rgb(165,93,40)" stroke="rgb(165,93,40)" stroke-width="1" opacity="0.803921568627451" d="M 270.5 289 L 276 289.5 L 270.5 290 L 270.5 289 Z " /><path fill="rgb(165,93,40)" stroke="rgb(165,93,40)" stroke-width="1" opacity="0.803921568627451" d="M 195.5 298 L 194.5 300 L 195.5 298 Z " /><path fill="rgb(165,93,40)" stroke="rgb(165,93,40)" stroke-width="1" opacity="0.803921568627451" d="M 200.5 314 L 198.5 317 L 200.5 314 Z " /><path fill="rgb(165,93,40)" stroke="rgb(165,93,40)" stroke-width="1" opacity="0.803921568627451" d="M 174.5 317 L 173.5 319 L 174.5 317 Z " /><path fill="rgb(165,93,40)" stroke="rgb(165,93,40)" stroke-width="1" opacity="0.803921568627451" d="M 193.5 320 L 190.5 324 L 193.5 320 Z " /><path fill="rgb(165,93,40)" stroke="rgb(165,93,40)" stroke-width="1" opacity="0.803921568627451" d="M 188.5 325 L 185.5 329 L 188.5 325 Z " /><path fill="rgb(165,93,40)" stroke="rgb(165,93,40)" stroke-width="1" opacity="0.803921568627451" d="M 250.5 331 L 248.5 334 L 250.5 331 Z " /><path fill="rgb(165,93,40)" stroke="rgb(165,93,40)" stroke-width="1" opacity="0.803921568627451" d="M 378.5 331 L 377.5 333 L 378.5 331 Z " /><path fill="rgb(165,93,40)" stroke="rgb(165,93,40)" stroke-width="1" opacity="0.803921568627451" d="M 181.5 333 L 180.5 335 L 181.5 333 Z " /><path fill="rgb(165,93,40)" stroke="rgb(165,93,40)" stroke-width="1" opacity="0.803921568627451" d="M 293.5 345 L 294.5 347 L 293.5 345 Z " /><path fill="rgb(165,93,40)" stroke="rgb(165,93,40)" stroke-width="1" opacity="0.803921568627451" d="M 213.5 347 L 212.5 349 L 213.5 347 Z " /><path fill="rgb(165,93,40)" stroke="rgb(165,93,40)" stroke-width="1" opacity="0.803921568627451" d="M 371.5 347 L 372 356.5 L 371 356.5 L 371.5 347 Z " /><path fill="rgb(165,93,40)" stroke="rgb(165,93,40)" stroke-width="1" opacity="0.803921568627451" d="M 208.5 352 L 207.5 354 L 208.5 352 Z " /><path fill="rgb(165,93,40)" stroke="rgb(165,93,40)" stroke-width="1" opacity="0.803921568627451" d="M 122.5 355 L 123 358.5 L 122 358.5 L 122.5 355 Z " /><path fill="rgb(165,93,40)" stroke="rgb(165,93,40)" stroke-width="1" opacity="0.803921568627451" d="M 204.5 357 L 203.5 359 L 204.5 357 Z " /><path fill="rgb(165,93,40)" stroke="rgb(165,93,40)" stroke-width="1" opacity="0.803921568627451" d="M 216.5 361 L 217 372.5 L 216 372.5 L 216.5 361 Z " /><path fill="rgb(165,93,40)" stroke="rgb(165,93,40)" stroke-width="1" opacity="0.803921568627451" d="M 121.5 367 L 122 373.5 L 121 373.5 L 121.5 367 Z " /><path fill="rgb(165,93,40)" stroke="rgb(165,93,40)" stroke-width="1" opacity="0.803921568627451" d="M 372.5 367 L 373 372.5 L 372 372.5 L 372.5 367 Z " /><path fill="rgb(165,93,40)" stroke="rgb(165,93,40)" stroke-width="1" opacity="0.803921568627451" d="M 149.5 383 L 150 400.5 L 149 400.5 L 149.5 383 Z " /><path fill="rgb(165,93,40)" stroke="rgb(165,93,40)" stroke-width="1" opacity="0.803921568627451" d="M 122.5 388 L 123 391.5 L 122 391.5 L 122.5 388 Z " /><path fill="rgb(165,93,40)" stroke="rgb(165,93,40)" stroke-width="1" opacity="0.803921568627451" d="M 225.5 406 L 226.5 408 L 225.5 406 Z " /><path fill="rgb(165,93,40)" stroke="rgb(165,93,40)" stroke-width="1" opacity="0.803921568627451" d="M 184.5 412 L 185 414.5 L 184 414.5 L 184.5 412 Z " /><path fill="rgb(165,93,40)" stroke="rgb(165,93,40)" stroke-width="1" opacity="0.803921568627451" d="M 242.5 416 L 245 416.5 L 242.5 417 L 242.5 416 Z " /><path fill="rgb(165,93,40)" stroke="rgb(165,93,40)" stroke-width="1" opacity="0.803921568627451" d="M 152.5 420 L 153.5 422 L 152.5 420 Z " /><path fill="rgb(165,93,40)" stroke="rgb(165,93,40)" stroke-width="1" opacity="0.803921568627451" d="M 184.5 426 L 185 430.5 L 184 430.5 L 184.5 426 Z " /><path fill="rgb(165,93,40)" stroke="rgb(165,93,40)" stroke-width="1" opacity="0.803921568627451" d="M 185.5 442 L 186 444.5 L 185 444.5 L 185.5 442 Z " /><path fill="rgb(165,93,40)" stroke="rgb(165,93,40)" stroke-width="1" opacity="0.803921568627451" d="M 308.5 450 L 311 450.5 L 308.5 451 L 308.5 450 Z " /><path fill="rgb(165,93,40)" stroke="rgb(165,93,40)" stroke-width="1" opacity="0.803921568627451" d="M 186.5 451 L 187 454.5 L 186 454.5 L 186.5 451 Z " /><path fill="rgb(165,93,40)" stroke="rgb(165,93,40)" stroke-width="1" opacity="0.803921568627451" d="M 153.5 460 L 157.5 465 L 153.5 460 Z " /><path fill="rgb(165,93,40)" stroke="rgb(165,93,40)" stroke-width="1" opacity="0.803921568627451" d="M 167.5 472 L 168.5 474 L 167.5 472 Z " /><path fill="rgb(165,93,40)" stroke="rgb(165,93,40)" stroke-width="1" opacity="0.803921568627451" d="M 178.5 477 L 181 477.5 L 178.5 478 L 178.5 477 Z " /><path fill="rgb(0,0,0)" stroke="rgb(0,0,0)" stroke-width="1" opacity="0" d="M 0 0 L 512 0 L 512 512 L 0 512 L 0 0 Z M 185 33 Q 172 35 164 42 Q 154 50 148 61 L 141 83 L 141 103 L 143 114 Q 147 128 156 138 L 169 148 L 180 153 L 188 153 L 189 154 L 200 153 L 207 151 L 221 142 L 230 131 L 237 117 L 238 108 L 240 104 L 240 83 Q 237 80 238 74 Q 234 60 226 51 Q 218 40 206 35 L 199 33 L 185 33 Z M 313 33 L 306 35 L 292 43 Q 280 53 274 69 L 270 92 L 271 106 L 274 118 L 285 137 L 288 138 L 289 141 L 302 150 L 312 153 L 321 153 L 322 154 L 336 151 L 346 146 L 352 141 Q 360 132 365 121 L 370 101 L 370 87 L 367 72 L 361 58 L 354 49 Q 347 40 336 35 L 328 33 L 313 33 Z M 97 139 L 87 142 L 74 150 L 63 165 L 58 175 L 54 195 L 55 212 L 57 221 L 63 235 L 68 242 L 84 255 L 91 258 L 101 260 L 109 260 Q 111 257 118 258 L 132 250 L 145 235 L 151 221 L 154 206 L 154 192 L 150 175 Q 145 161 136 152 Q 133 153 134 150 L 116 140 Q 108 138 97 139 Z M 403 139 L 388 144 L 382 148 Q 363 162 358 191 L 358 210 L 361 219 L 361 223 L 372 243 Q 379 251 389 256 L 402 260 L 415 260 L 423 258 L 431 254 L 441 246 L 451 231 L 455 221 L 457 211 L 457 189 Q 454 186 455 180 Q 451 166 443 157 Q 436 147 424 142 L 414 139 L 403 139 Z M 228 239 Q 194 245 173 264 Q 170 263 171 266 L 169 267 Q 145 287 132 318 L 124 344 L 124 350 L 122 356 L 122 367 L 121 368 L 122 392 L 127 417 L 137 440 L 149 456 Q 148 458 151 457 L 153 461 L 169 474 L 179 478 L 185 477 L 188 472 L 184 421 L 184 419 L 187 392 Q 190 389 190 383 Q 197 364 209 352 L 216 347 L 217 350 L 217 361 L 216 362 L 216 373 L 217 374 L 217 382 L 219 388 L 219 393 L 225 407 Q 231 415 243 417 Q 258 419 265 414 L 268 408 L 268 401 L 266 394 L 257 373 L 254 369 L 249 355 L 247 345 L 248 335 Q 251 330 257 329 L 273 330 Q 284 334 291 343 L 293 346 L 301 352 L 308 354 L 310 353 L 330 353 L 334 355 L 337 361 L 339 369 Q 340 386 333 396 Q 327 404 317 408 Q 299 414 285 422 L 284 425 Q 283 434 287 438 L 300 448 L 309 451 L 317 451 L 327 449 L 344 439 L 358 424 L 366 409 L 371 393 L 372 374 L 373 373 Q 374 368 372 367 L 372 345 Q 374 335 380 330 Q 379 327 382 328 L 391 312 L 396 297 Q 397 289 394 286 Q 386 285 381 288 L 368 288 L 351 274 L 330 266 L 323 257 L 321 250 L 316 243 Q 308 242 306 246 Q 303 245 304 248 L 302 249 L 289 267 L 280 288 L 278 289 L 258 291 L 237 296 Q 218 301 205 312 Q 202 311 203 314 L 201 314 L 194 320 Q 174 337 164 364 L 157 389 L 156 404 L 155 405 L 155 417 L 154 421 L 151 417 Q 153 410 150 409 L 150 375 L 152 369 L 152 364 L 154 360 L 154 355 L 156 353 L 157 347 L 161 338 L 175 317 L 187 305 L 206 292 L 245 276 Q 250 272 252 265 Q 254 253 249 249 Q 243 239 228 239 Z " /><path fill="rgb(166,94,41)" stroke="rgb(166,94,41)" stroke-width="1" opacity="0.996078431372549" d="M 204.5 35 L 205 37 L 202 36.5 L 204.5 35 Z " /><path fill="rgb(166,94,41)" stroke="rgb(166,94,41)" stroke-width="1" opacity="0.996078431372549" d="M 303.5 36 L 306 36.5 Q 306.8 38.8 304.5 38 L 303.5 36 Z " /><path fill="rgb(166,94,41)" stroke="rgb(166,94,41)" stroke-width="1" opacity="0.996078431372549" d="M 168.5 39 L 169 42 L 167 41.5 L 168.5 39 Z " /><path fill="rgb(166,94,41)" stroke="rgb(166,94,41)" stroke-width="1" opacity="0.996078431372549" d="M 296.5 40 L 299 40.5 Q 299.7 43.5 296 42 L 296.5 40 Z " /><path fill="rgb(166,94,41)" stroke="rgb(166,94,41)" stroke-width="1" opacity="0.996078431372549" d="M 342.5 40 L 341.5 42 L 342.5 40 Z " /><path fill="rgb(166,94,41)" stroke="rgb(166,94,41)" stroke-width="1" opacity="0.996078431372549" d="M 345.5 41 L 347 44.5 L 345 43.5 L 345.5 41 Z " /><path fill="rgb(166,94,41)" stroke="rgb(166,94,41)" stroke-width="1" opacity="0.996078431372549" d="M 162.5 43 L 162 44.5 L 161 48 L 158 48 Q 159.1 50.7 156.5 50 L 155 50.5 L 162.5 43 Z " /><path fill="rgb(166,94,41)" stroke="rgb(166,94,41)" stroke-width="1" opacity="0.996078431372549" d="M 217 44 Q 220.8 43.3 222 46.5 Q 221.3 48.8 223.5 48 Q 226.5 49.5 223.5 51 Q 220.3 49.8 221 46 Q 215.8 47.7 217 44 Z " /><path fill="rgb(166,94,41)" stroke="rgb(166,94,41)" stroke-width="1" opacity="0.996078431372549" d="M 349.5 45 L 353 47.5 L 350.5 46 L 349.5 45 Z " /><path fill="rgb(166,94,41)" stroke="rgb(166,94,41)" stroke-width="1" opacity="0.996078431372549" d="M 287.5 48 Q 290.1 47.3 289 50 L 286 49.5 L 287.5 48 Z " /><path fill="rgb(166,94,41)" stroke="rgb(166,94,41)" stroke-width="1" opacity="0.996078431372549" d="M 353.5 49 L 355.5 52 L 353 51 L 353.5 49 Z " /><path fill="rgb(166,94,41)" stroke="rgb(166,94,41)" stroke-width="1" opacity="0.996078431372549" d="M 155.5 52 L 156.5 54 L 154 53.5 L 155.5 52 Z " /><path fill="rgb(166,94,41)" stroke="rgb(166,94,41)" stroke-width="1" opacity="0.996078431372549" d="M 225.5 52 L 228 53.5 Q 226.5 56.5 225 53.5 L 225.5 52 Z " /><path fill="rgb(166,94,41)" stroke="rgb(166,94,41)" stroke-width="1" opacity="0.996078431372549" d="M 357.5 55 L 358.5 57 L 360 56.5 L 357 58 L 357.5 55 Z " /><path fill="rgb(166,94,41)" stroke="rgb(166,94,41)" stroke-width="1" opacity="0.996078431372549" d="M 151.5 58 L 153 58.5 L 149.5 60 L 149.5 59 L 151.5 58 Z " /><path fill="rgb(166,94,41)" stroke="rgb(166,94,41)" stroke-width="1" opacity="0.996078431372549" d="M 361.5 64 L 364 64.5 L 361.5 65 L 361.5 64 Z " /><path fill="rgb(166,94,41)" stroke="rgb(166,94,41)" stroke-width="1" opacity="0.996078431372549" d="M 146.5 65 L 148 67.5 L 147 67.5 L 146.5 65 Z " /><path fill="rgb(166,94,41)" stroke="rgb(166,94,41)" stroke-width="1" opacity="0.996078431372549" d="M 275.5 70 L 276 73.5 L 275 73.5 L 275.5 70 Z " /><path fill="rgb(166,94,41)" stroke="rgb(166,94,41)" stroke-width="1" opacity="0.996078431372549" d="M 366 76 L 368 76.5 L 366 77.5 L 366 76 Z " /><path fill="rgb(166,94,41)" stroke="rgb(166,94,41)" stroke-width="1" opacity="0.996078431372549" d="M 142.5 78 L 143.5 80 Q 140.7 80.7 142.5 78 Z " /><path fill="rgb(166,94,41)" stroke="rgb(166,94,41)" stroke-width="1" opacity="0.996078431372549" d="M 239.5 84 L 240 86.5 L 239 86.5 L 239.5 84 Z " /><path fill="rgb(166,94,41)" stroke="rgb(166,94,41)" stroke-width="1" opacity="0.996078431372549" d="M 369.5 87 L 370 98.5 L 369 98.5 L 369.5 87 Z " /><path fill="rgb(166,94,41)" stroke="rgb(166,94,41)" stroke-width="1" opacity="0.996078431372549" d="M 239.5 99 L 240 101.5 L 239 101.5 L 239.5 99 Z " /><path fill="rgb(166,94,41)" stroke="rgb(166,94,41)" stroke-width="1" opacity="0.996078431372549" d="M 143.5 106 L 142.5 108 L 143.5 106 Z " /><path fill="rgb(166,94,41)" stroke="rgb(166,94,41)" stroke-width="1" opacity="0.996078431372549" d="M 365 113 L 367 113.5 L 365 114.5 L 365 113 Z " /><path fill="rgb(166,94,41)" stroke="rgb(166,94,41)" stroke-width="1" opacity="0.996078431372549" d="M 275.5 114 L 276 115.5 L 274 116.5 L 275.5 114 Z " /><path fill="rgb(166,94,41)" stroke="rgb(166,94,41)" stroke-width="1" opacity="0.996078431372549" d="M 234.5 116 L 236 118.5 L 235 118.5 L 234.5 116 Z " /><path fill="rgb(166,94,41)" stroke="rgb(166,94,41)" stroke-width="1" opacity="0.996078431372549" d="M 146.5 120 L 149 121.5 L 147 122.5 L 147.5 121 L 146.5 120 Z " /><path fill="rgb(166,94,41)" stroke="rgb(166,94,41)" stroke-width="1" opacity="0.996078431372549" d="M 278.5 122 L 280 122.5 L 278.5 126 L 277 123.5 L 278.5 122 Z " /><path fill="rgb(166,94,41)" stroke="rgb(166,94,41)" stroke-width="1" opacity="0.996078431372549" d="M 151.5 127 L 153 129.5 L 152.5 132 L 151.5 129 L 150 128.5 L 151.5 127 Z " /><path fill="rgb(166,94,41)" stroke="rgb(166,94,41)" stroke-width="1" opacity="0.996078431372549" d="M 225.5 130 L 227.5 131 L 229 130.5 L 227.5 133 Q 225.3 133.8 226 131.5 L 225.5 130 Z " /><path fill="rgb(166,94,41)" stroke="rgb(166,94,41)" stroke-width="1" opacity="0.996078431372549" d="M 284.5 130 L 286.5 135 L 290.5 134 L 290.5 135 L 288 136.5 L 289 138.5 L 286 136.5 L 284.5 134 L 283 133.5 L 284.5 130 Z " /><path fill="rgb(166,94,41)" stroke="rgb(166,94,41)" stroke-width="1" opacity="0.996078431372549" d="M 154.5 132 L 154.5 135 Q 151.5 133.5 154.5 132 Z " /><path fill="rgb(166,94,41)" stroke="rgb(166,94,41)" stroke-width="1" opacity="0.996078431372549" d="M 226.5 134 L 224.5 137 L 223 136.5 L 226.5 134 Z " /><path fill="rgb(166,94,41)" stroke="rgb(166,94,41)" stroke-width="1" opacity="0.996078431372549" d="M 353.5 135 Q 356.5 136.5 353.5 138 L 353.5 135 Z " /><path fill="rgb(166,94,41)" stroke="rgb(166,94,41)" stroke-width="1" opacity="0.996078431372549" d="M 159.5 138 L 160.5 140 L 159.5 138 Z " /><path fill="rgb(166,94,41)" stroke="rgb(166,94,41)" stroke-width="1" opacity="0.996078431372549" d="M 349 140 L 351 140.5 L 348 142.5 L 349 140 Z " /><path fill="rgb(166,94,41)" stroke="rgb(166,94,41)" stroke-width="1" opacity="0.996078431372549" d="M 87.5 142 L 89 143.5 L 88.5 146 L 87 144.5 L 87.5 142 Z " /><path fill="rgb(166,94,41)" stroke="rgb(166,94,41)" stroke-width="1" opacity="0.996078431372549" d="M 120.5 142 L 123 143 L 123.5 145 L 125 144.5 L 126 146.5 L 124.5 146 L 121 144.5 L 120.5 142 Z " /><path fill="rgb(166,94,41)" stroke="rgb(166,94,41)" stroke-width="1" opacity="0.996078431372549" d="M 214.5 142 L 218 143.5 L 216.5 145 L 214.5 142 Z " /><path fill="rgb(166,94,41)" stroke="rgb(166,94,41)" stroke-width="1" opacity="0.996078431372549" d="M 293.5 142 L 297 144.5 L 294 144.5 L 293.5 142 Z " /><path fill="rgb(166,94,41)" stroke="rgb(166,94,41)" stroke-width="1" opacity="0.996078431372549" d="M 345 142 L 347 142.5 L 345 143.5 L 345 142 Z " /><path fill="rgb(166,94,41)" stroke="rgb(166,94,41)" stroke-width="1" opacity="0.996078431372549" d="M 85.5 143 L 86 144.5 Q 84.5 147.5 83 144.5 L 85.5 143 Z " /><path fill="rgb(166,94,41)" stroke="rgb(166,94,41)" stroke-width="1" opacity="0.996078431372549" d="M 390.5 143 L 391.5 145 L 388.5 146 L 388.5 145 Q 391 145.7 390.5 143 Z " /><path fill="rgb(166,94,41)" stroke="rgb(166,94,41)" stroke-width="1" opacity="0.996078431372549" d="M 166.5 144 L 168 146.5 L 167 146.5 L 166.5 144 Z " /><path fill="rgb(166,94,41)" stroke="rgb(166,94,41)" stroke-width="1" opacity="0.996078431372549" d="M 424 144 L 427 145.5 L 424 146 L 424 144 Z " /><path fill="rgb(166,94,41)" stroke="rgb(166,94,41)" stroke-width="1" opacity="0.996078431372549" d="M 169.5 146 L 172 147.5 L 170.5 147 L 169.5 146 Z " /><path fill="rgb(166,94,41)" stroke="rgb(166,94,41)" stroke-width="1" opacity="0.996078431372549" d="M 299.5 146 L 302 147.5 L 300.5 147 L 299.5 146 Z " /><path fill="rgb(166,94,41)" stroke="rgb(166,94,41)" stroke-width="1" opacity="0.996078431372549" d="M 338.5 146 L 340.5 146 Q 342.8 145.3 342 147.5 L 340 147.5 Q 340.8 149.8 338.5 149 L 337 149.5 L 338.5 146 Z " /><path fill="rgb(166,94,41)" stroke="rgb(166,94,41)" stroke-width="1" opacity="0.996078431372549" d="M 384.5 146 L 385 147.5 L 383 148.5 L 384.5 146 Z " /><path fill="rgb(166,94,41)" stroke="rgb(166,94,41)" stroke-width="1" opacity="0.996078431372549" d="M 430.5 146 L 432 148.5 L 430 147.5 L 430.5 146 Z " /><path fill="rgb(166,94,41)" stroke="rgb(166,94,41)" stroke-width="1" opacity="0.996078431372549" d="M 80.5 147 L 81 150 L 77 148.5 Q 78.8 150.1 80.5 147 Z " /><path fill="rgb(166,94,41)" stroke="rgb(166,94,41)" stroke-width="1" opacity="0.996078431372549" d="M 129.5 147 L 131 150 Q 127.5 151.1 129.5 147 Z " /><path fill="rgb(166,94,41)" stroke="rgb(166,94,41)" stroke-width="1" opacity="0.996078431372549" d="M 209 147 L 212 147.5 L 209.5 149 L 209 147 Z " /><path fill="rgb(166,94,41)" stroke="rgb(166,94,41)" stroke-width="1" opacity="0.996078431372549" d="M 197.5 151 L 200 151.5 Q 197.9 154.8 197.5 151 Z " /><path fill="rgb(166,94,41)" stroke="rgb(166,94,41)" stroke-width="1" opacity="0.996078431372549" d="M 314.5 151 L 317 151.5 L 314.5 152 L 314.5 151 Z " /><path fill="rgb(166,94,41)" stroke="rgb(166,94,41)" stroke-width="1" opacity="0.996078431372549" d="M 133.5 152 L 134.5 154 Q 131.7 154.7 133.5 152 Z " /><path fill="rgb(166,94,41)" stroke="rgb(166,94,41)" stroke-width="1" opacity="0.996078431372549" d="M 72 153 L 75 153.5 L 73 154 L 71.5 158 L 71 156.5 L 72 153 Z " /><path fill="rgb(166,94,41)" stroke="rgb(166,94,41)" stroke-width="1" opacity="0.996078431372549" d="M 376 153 L 379 153.5 L 375.5 156 L 376 154.5 L 376 153 Z " /><path fill="rgb(166,94,41)" stroke="rgb(166,94,41)" stroke-width="1" opacity="0.996078431372549" d="M 136.5 155 L 141 158.5 L 137 157.5 L 136.5 155 Z " /><path fill="rgb(166,94,41)" stroke="rgb(166,94,41)" stroke-width="1" opacity="0.996078431372549" d="M 68.5 157 L 69 159.5 L 68.5 161 L 67 158.5 L 68.5 157 Z " /><path fill="rgb(166,94,41)" stroke="rgb(166,94,41)" stroke-width="1" opacity="0.996078431372549" d="M 369.5 161 Q 371.8 160.3 371 162.5 L 369.5 161 Z " /><path fill="rgb(166,94,41)" stroke="rgb(166,94,41)" stroke-width="1" opacity="0.996078431372549" d="M 445.5 161 L 446.5 163 L 445.5 161 Z " /><path fill="rgb(166,94,41)" stroke="rgb(166,94,41)" stroke-width="1" opacity="0.996078431372549" d="M 143.5 163 Q 146.5 164.5 143.5 166 L 143.5 163 Z " /><path fill="rgb(166,94,41)" stroke="rgb(166,94,41)" stroke-width="1" opacity="0.996078431372549" d="M 368.5 163 L 369 165.5 Q 370.1 168.8 367.5 168 L 367.5 170 L 365 168.5 L 367 167.5 L 366.5 166 L 368 166.5 L 367 164.5 L 368.5 163 Z " /><path fill="rgb(166,94,41)" stroke="rgb(166,94,41)" stroke-width="1" opacity="0.996078431372549" d="M 145 168 Q 147.7 166.9 147 169.5 L 147 171.5 L 148 173.5 L 145 171.5 L 145 168 Z " /><path fill="rgb(166,94,41)" stroke="rgb(166,94,41)" stroke-width="1" opacity="0.996078431372549" d="M 449 169 L 451 169.5 L 451 171.5 L 450.5 174 L 449 169 Z " /><path fill="rgb(166,94,41)" stroke="rgb(166,94,41)" stroke-width="1" opacity="0.996078431372549" d="M 362.5 175 L 364 177.5 L 363 177.5 L 362.5 175 Z " /><path fill="rgb(166,94,41)" stroke="rgb(166,94,41)" stroke-width="1" opacity="0.996078431372549" d="M 58.5 176 Q 60.8 175.3 60 177.5 L 58.5 176 Z " /><path fill="rgb(166,94,41)" stroke="rgb(166,94,41)" stroke-width="1" opacity="0.996078431372549" d="M 151.5 182 L 151 183.5 L 150.5 185 L 150 183.5 L 151.5 182 Z " /><path fill="rgb(166,94,41)" stroke="rgb(166,94,41)" stroke-width="1" opacity="0.996078431372549" d="M 455.5 184 L 456 185.5 L 454 186.5 L 455.5 184 Z " /><path fill="rgb(166,94,41)" stroke="rgb(166,94,41)" stroke-width="1" opacity="0.996078431372549" d="M 456.5 189 L 457 191.5 L 456 191.5 L 456.5 189 Z " /><path fill="rgb(166,94,41)" stroke="rgb(166,94,41)" stroke-width="1" opacity="0.996078431372549" d="M 358.5 193 L 360 197.5 L 358 196.5 L 358.5 193 Z " /><path fill="rgb(166,94,41)" stroke="rgb(166,94,41)" stroke-width="1" opacity="0.996078431372549" d="M 153.5 195 L 154 201.5 L 153 201.5 L 153.5 195 Z " /><path fill="rgb(166,94,41)" stroke="rgb(166,94,41)" stroke-width="1" opacity="0.996078431372549" d="M 358.5 204 L 359 206.5 L 358 206.5 L 358.5 204 Z " /><path fill="rgb(166,94,41)" stroke="rgb(166,94,41)" stroke-width="1" opacity="0.996078431372549" d="M 150.5 213 L 152 217 Q 148.2 218.2 150.5 213 Z " /><path fill="rgb(166,94,41)" stroke="rgb(166,94,41)" stroke-width="1" opacity="0.996078431372549" d="M 60.5 223 L 61 224.5 L 59 225.5 L 60.5 223 Z " /><path fill="rgb(166,94,41)" stroke="rgb(166,94,41)" stroke-width="1" opacity="0.996078431372549" d="M 450.5 226 L 451.5 228 L 450.5 226 Z " /><path fill="rgb(166,94,41)" stroke="rgb(166,94,41)" stroke-width="1" opacity="0.996078431372549" d="M 62.5 230 L 65 231.5 L 64.5 233 L 64 231 L 62.5 230 Z " /><path fill="rgb(166,94,41)" stroke="rgb(166,94,41)" stroke-width="1" opacity="0.996078431372549" d="M 368.5 231 L 368.5 234 Q 365.5 232.5 368.5 231 Z " /><path fill="rgb(166,94,41)" stroke="rgb(166,94,41)" stroke-width="1" opacity="0.996078431372549" d="M 143.5 233 L 143.5 236 Q 141.3 236.8 142 234.5 L 143.5 233 Z " /><path fill="rgb(166,94,41)" stroke="rgb(166,94,41)" stroke-width="1" opacity="0.996078431372549" d="M 66.5 238 Q 68.8 237.3 68 239.5 L 66.5 238 Z " /><path fill="rgb(166,94,41)" stroke="rgb(166,94,41)" stroke-width="1" opacity="0.996078431372549" d="M 140.5 238 L 142 238.5 L 137.5 244 L 136 242.5 L 140.5 238 Z " /><path fill="rgb(166,94,41)" stroke="rgb(166,94,41)" stroke-width="1" opacity="0.996078431372549" d="M 371.5 238 L 373 241 L 370 239.5 L 371.5 238 Z " /><path fill="rgb(166,94,41)" stroke="rgb(166,94,41)" stroke-width="1" opacity="0.996078431372549" d="M 442.5 238 L 443.5 240 L 442.5 238 Z " /><path fill="rgb(166,94,41)" stroke="rgb(166,94,41)" stroke-width="1" opacity="0.996078431372549" d="M 71.5 242 Q 73.8 241.3 73 243.5 Q 70.3 245.3 74.5 247 L 76.5 246 L 77 247.5 L 75.5 249 L 70 243.5 L 71.5 242 Z " /><path fill="rgb(166,94,41)" stroke="rgb(166,94,41)" stroke-width="1" opacity="0.996078431372549" d="M 241.5 242 L 243.5 245 L 244.5 244 L 248 247.5 L 247.5 250 L 245 249.5 Q 244.3 247.3 246.5 248 L 244.5 245 L 241 245.5 L 240 243.5 L 241.5 242 Z " /><path fill="rgb(166,94,41)" stroke="rgb(166,94,41)" stroke-width="1" opacity="0.996078431372549" d="M 374.5 242 L 377 242.5 L 376 245.5 L 379 246.5 Q 377 250 375 245.5 L 376 244.5 L 374.5 242 Z " /><path fill="rgb(166,94,41)" stroke="rgb(166,94,41)" stroke-width="1" opacity="0.996078431372549" d="M 440.5 242 L 443 242.5 L 437.5 247 L 439 244.5 L 440.5 242 Z " /><path fill="rgb(166,94,41)" stroke="rgb(166,94,41)" stroke-width="1" opacity="0.996078431372549" d="M 310.5 243 L 314 243.5 Q 312.8 246.2 311.5 244 L 310.5 243 Z " /><path fill="rgb(166,94,41)" stroke="rgb(166,94,41)" stroke-width="1" opacity="0.996078431372549" d="M 308.5 244 L 309.5 246 L 306 245.5 L 308.5 244 Z " /><path fill="rgb(166,94,41)" stroke="rgb(166,94,41)" stroke-width="1" opacity="0.996078431372549" d="M 316.5 244 Q 321 246 317.5 248 L 317.5 246 L 315 245.5 L 316.5 244 Z " /><path fill="rgb(166,94,41)" stroke="rgb(166,94,41)" stroke-width="1" opacity="0.996078431372549" d="M 133 246 L 135 246.5 L 132 248.5 L 133 246 Z " /><path fill="rgb(166,94,41)" stroke="rgb(166,94,41)" stroke-width="1" opacity="0.996078431372549" d="M 203.5 246 L 204.5 248 L 203.5 246 Z " /><path fill="rgb(166,94,41)" stroke="rgb(166,94,41)" stroke-width="1" opacity="0.996078431372549" d="M 198.5 248 Q 200.8 247.3 200 249.5 L 198.5 248 Z " /><path fill="rgb(166,94,41)" stroke="rgb(166,94,41)" stroke-width="1" opacity="0.996078431372549" d="M 304.5 248 L 305 250 L 303 249.5 L 304.5 248 Z " /><path fill="rgb(166,94,41)" stroke="rgb(166,94,41)" stroke-width="1" opacity="0.996078431372549" d="M 129.5 249 L 130 250.5 Q 128.8 253 125 252 L 125.5 250 L 127.5 251 L 129.5 249 Z " /><path fill="rgb(166,94,41)" stroke="rgb(166,94,41)" stroke-width="1" opacity="0.996078431372549" d="M 196.5 249 L 197.5 251 L 191.5 254 L 190.5 252 L 192 252.5 L 192.5 251 L 194 251.5 L 194.5 250 L 196 250.5 L 196.5 249 Z " /><path fill="rgb(166,94,41)" stroke="rgb(166,94,41)" stroke-width="1" opacity="0.996078431372549" d="M 249.5 250 L 248.5 252 L 249.5 250 Z " /><path fill="rgb(166,94,41)" stroke="rgb(166,94,41)" stroke-width="1" opacity="0.996078431372549" d="M 382 250 Q 386.1 248.7 385 252 Q 380.9 253.3 382 250 Z " /><path fill="rgb(166,94,41)" stroke="rgb(166,94,41)" stroke-width="1" opacity="0.996078431372549" d="M 431.5 250 Q 433.8 249.3 433 251.5 Q 431.8 254.3 430.5 252 L 429 251.5 L 431.5 250 Z " /><path fill="rgb(166,94,41)" stroke="rgb(166,94,41)" stroke-width="1" opacity="0.996078431372549" d="M 321.5 252 L 322 254 L 320 253.5 L 321.5 252 Z " /><path fill="rgb(166,94,41)" stroke="rgb(166,94,41)" stroke-width="1" opacity="0.996078431372549" d="M 120.5 254 Q 122.8 253.3 122 255.5 L 120.5 254 Z " /><path fill="rgb(166,94,41)" stroke="rgb(166,94,41)" stroke-width="1" opacity="0.996078431372549" d="M 387.5 254 L 393 255.5 L 391 256.5 Q 391.9 253.5 387.5 255 L 387.5 254 Z " /><path fill="rgb(166,94,41)" stroke="rgb(166,94,41)" stroke-width="1" opacity="0.996078431372549" d="M 424.5 254 L 423.5 256 L 421.5 257 L 421 255 L 424.5 254 Z " /><path fill="rgb(166,94,41)" stroke="rgb(166,94,41)" stroke-width="1" opacity="0.996078431372549" d="M 118.5 255 L 119.5 257 L 118.5 255 Z " /><path fill="rgb(166,94,41)" stroke="rgb(166,94,41)" stroke-width="1" opacity="0.996078431372549" d="M 187.5 255 L 188.5 257 L 187.5 255 Z " /><path fill="rgb(166,94,41)" stroke="rgb(166,94,41)" stroke-width="1" opacity="0.996078431372549" d="M 251.5 255 L 252 256.5 L 249.5 258 L 249.5 257 Q 252 257.7 251.5 255 Z " /><path fill="rgb(166,94,41)" stroke="rgb(166,94,41)" stroke-width="1" opacity="0.996078431372549" d="M 295.5 257 Q 298.5 256.1 297 260.5 Q 295.5 263.5 294 260.5 L 295.5 257 Z " /><path fill="rgb(166,94,41)" stroke="rgb(166,94,41)" stroke-width="1" opacity="0.996078431372549" d="M 322 257 L 324 257.5 L 322 258.5 L 322 257 Z " /><path fill="rgb(166,94,41)" stroke="rgb(166,94,41)" stroke-width="1" opacity="0.996078431372549" d="M 403.5 258 L 405 258.5 L 401.5 260 L 401.5 259 L 403.5 258 Z " /><path fill="rgb(166,94,41)" stroke="rgb(166,94,41)" stroke-width="1" opacity="0.996078431372549" d="M 250.5 262 L 252 265 Q 248.5 266.1 250.5 262 Z " /><path fill="rgb(166,94,41)" stroke="rgb(166,94,41)" stroke-width="1" opacity="0.996078431372549" d="M 173.5 263 L 173 264.5 L 172.5 266 L 172 264.5 L 173.5 263 Z " /><path fill="rgb(166,94,41)" stroke="rgb(166,94,41)" stroke-width="1" opacity="0.996078431372549" d="M 325.5 264 L 328 264.5 L 325 266 L 325.5 264 Z " /><path fill="rgb(166,94,41)" stroke="rgb(166,94,41)" stroke-width="1" opacity="0.996078431372549" d="M 291.5 266 L 293 266.5 L 290.5 268 L 291.5 266 Z " /><path fill="rgb(166,94,41)" stroke="rgb(166,94,41)" stroke-width="1" opacity="0.996078431372549" d="M 168.5 267 L 168.5 270 L 166 269.5 L 168.5 267 Z " /><path fill="rgb(166,94,41)" stroke="rgb(166,94,41)" stroke-width="1" opacity="0.996078431372549" d="M 329.5 267 L 332 267.5 L 333 269.5 L 331.5 269 L 329.5 267 Z " /><path fill="rgb(166,94,41)" stroke="rgb(166,94,41)" stroke-width="1" opacity="0.996078431372549" d="M 245.5 270 Q 249.3 268.8 248 272.5 Q 245.7 276.6 241 277 L 242.5 274 Q 243.8 276.3 245 273.5 Q 244.3 271.3 246.5 272 L 246.5 271 L 245.5 270 Z " /><path fill="rgb(166,94,41)" stroke="rgb(166,94,41)" stroke-width="1" opacity="0.996078431372549" d="M 343.5 271 L 344 273 L 346 273.5 L 343.5 274 Q 340.5 272.5 343.5 271 Z " /><path fill="rgb(166,94,41)" stroke="rgb(166,94,41)" stroke-width="1" opacity="0.996078431372549" d="M 164.5 272 L 165 274 L 162.5 275 L 164.5 272 Z " /><path fill="rgb(166,94,41)" stroke="rgb(166,94,41)" stroke-width="1" opacity="0.996078431372549" d="M 286.5 273 Q 289.1 272.2 288 275.5 L 287 275.5 L 286.5 273 Z " /><path fill="rgb(166,94,41)" stroke="rgb(166,94,41)" stroke-width="1" opacity="0.996078431372549" d="M 348.5 275 L 350.5 276 L 352 275.5 Q 352.8 277.8 350.5 277 L 348.5 275 Z " /><path fill="rgb(166,94,41)" stroke="rgb(166,94,41)" stroke-width="1" opacity="0.996078431372549" d="M 159 276 Q 162 275 161 278 Q 158 279 159 276 Z " /><path fill="rgb(166,94,41)" stroke="rgb(166,94,41)" stroke-width="1" opacity="0.996078431372549" d="M 156.5 279 L 157 281.5 L 154 281.5 L 156.5 279 Z " /><path fill="rgb(166,94,41)" stroke="rgb(166,94,41)" stroke-width="1" opacity="0.996078431372549" d="M 229.5 280 L 230.5 282 L 229.5 280 Z " /><path fill="rgb(166,94,41)" stroke="rgb(166,94,41)" stroke-width="1" opacity="0.996078431372549" d="M 359.5 281 L 361.5 284 L 359.5 281 Z " /><path fill="rgb(166,94,41)" stroke="rgb(166,94,41)" stroke-width="1" opacity="0.996078431372549" d="M 153 283 L 155 283.5 L 154.5 285 L 157 285.5 L 154.5 286 L 153 283 Z " /><path fill="rgb(166,94,41)" stroke="rgb(166,94,41)" stroke-width="1" opacity="0.996078431372549" d="M 220.5 283 Q 222.8 282.3 222 284.5 L 220.5 283 Z " /><path fill="rgb(166,94,41)" stroke="rgb(166,94,41)" stroke-width="1" opacity="0.996078431372549" d="M 218.5 284 L 219.5 286 L 218.5 284 Z " /><path fill="rgb(166,94,41)" stroke="rgb(166,94,41)" stroke-width="1" opacity="0.996078431372549" d="M 209.5 287 L 210.5 289 L 211 287 Q 214 286 213 289 L 210.5 290 L 209.5 287 Z " /><path fill="rgb(166,94,41)" stroke="rgb(166,94,41)" stroke-width="1" opacity="0.996078431372549" d="M 365 287 L 367 287.5 L 365.5 290 L 365 287 Z " /><path fill="rgb(166,94,41)" stroke="rgb(166,94,41)" stroke-width="1" opacity="0.996078431372549" d="M 381.5 287 L 385 288 L 384.5 290 L 382.5 290 L 381 289.5 L 381.5 287 Z " /><path fill="rgb(166,94,41)" stroke="rgb(166,94,41)" stroke-width="1" opacity="0.996078431372549" d="M 149.5 288 L 152 289.5 L 149.5 290 L 148 289.5 L 149.5 288 Z " /><path fill="rgb(166,94,41)" stroke="rgb(166,94,41)" stroke-width="1" opacity="0.996078431372549" d="M 280.5 288 L 279.5 290 L 278 289.5 L 280.5 288 Z " /><path fill="rgb(166,94,41)" stroke="rgb(166,94,41)" stroke-width="1" opacity="0.996078431372549" d="M 368 288 L 371 288.5 L 368.5 290 L 368 288 Z " /><path fill="rgb(166,94,41)" stroke="rgb(166,94,41)" stroke-width="1" opacity="0.996078431372549" d="M 372.5 288 L 377 288.5 L 372.5 289 L 372.5 288 Z " /><path fill="rgb(166,94,41)" stroke="rgb(166,94,41)" stroke-width="1" opacity="0.996078431372549" d="M 393.5 288 Q 395.8 287.3 395 289.5 L 396 292.5 L 396 294.5 L 394.5 297 L 394 294.5 L 393.5 288 Z " /><path fill="rgb(166,94,41)" stroke="rgb(166,94,41)" stroke-width="1" opacity="0.996078431372549" d="M 265.5 290 L 268 290.5 L 265.5 291 L 265.5 290 Z " /><path fill="rgb(166,94,41)" stroke="rgb(166,94,41)" stroke-width="1" opacity="0.996078431372549" d="M 258.5 291 L 261 292.5 L 258.5 294 L 258.5 291 Z " /><path fill="rgb(166,94,41)" stroke="rgb(166,94,41)" stroke-width="1" opacity="0.996078431372549" d="M 197.5 295 L 198.5 297 L 197.5 295 Z " /><path fill="rgb(166,94,41)" stroke="rgb(166,94,41)" stroke-width="1" opacity="0.996078431372549" d="M 144.5 297 L 145 300 L 142.5 301 L 142.5 298 L 144.5 297 Z " /><path fill="rgb(166,94,41)" stroke="rgb(166,94,41)" stroke-width="1" opacity="0.996078431372549" d="M 191 298 Q 195.1 296.7 194 300 L 190 301.5 L 188.5 304 L 188 302.5 L 191 298 Z " /><path fill="rgb(166,94,41)" stroke="rgb(166,94,41)" stroke-width="1" opacity="0.996078431372549" d="M 228.5 299 Q 231.5 300.5 228.5 302 L 226 300.5 L 228.5 299 Z " /><path fill="rgb(166,94,41)" stroke="rgb(166,94,41)" stroke-width="1" opacity="0.996078431372549" d="M 217.5 304 L 218.5 306 Q 215.7 306.7 217.5 304 Z " /><path fill="rgb(166,94,41)" stroke="rgb(166,94,41)" stroke-width="1" opacity="0.996078431372549" d="M 138.5 305 L 140 307.5 L 139 307.5 L 138.5 305 Z " /><path fill="rgb(166,94,41)" stroke="rgb(166,94,41)" stroke-width="1" opacity="0.996078431372549" d="M 181 306 L 185 306.5 L 176.5 315 L 173.5 315 L 173.5 314 Q 177.3 314.8 178 312.5 L 177 310 L 179.5 311 Q 183.8 309.3 181 307.5 L 181 306 Z " /><path fill="rgb(166,94,41)" stroke="rgb(166,94,41)" stroke-width="1" opacity="0.996078431372549" d="M 390.5 306 L 392 308.5 L 390 307.5 L 390.5 306 Z " /><path fill="rgb(166,94,41)" stroke="rgb(166,94,41)" stroke-width="1" opacity="0.996078431372549" d="M 207.5 310 L 208.5 312 Q 205.7 312.7 207.5 310 Z " /><path fill="rgb(166,94,41)" stroke="rgb(166,94,41)" stroke-width="1" opacity="0.996078431372549" d="M 134.5 313 L 137 313.5 Q 134.9 316.8 134.5 313 Z " /><path fill="rgb(166,94,41)" stroke="rgb(166,94,41)" stroke-width="1" opacity="0.996078431372549" d="M 200.5 316 L 201 318 L 199 317.5 L 200.5 316 Z " /><path fill="rgb(166,94,41)" stroke="rgb(166,94,41)" stroke-width="1" opacity="0.996078431372549" d="M 385.5 316 L 386 320.5 L 385 320.5 L 385.5 316 Z " /><path fill="rgb(166,94,41)" stroke="rgb(166,94,41)" stroke-width="1" opacity="0.996078431372549" d="M 171.5 319 L 173 319.5 L 169.5 322 L 171.5 319 Z " /><path fill="rgb(166,94,41)" stroke="rgb(166,94,41)" stroke-width="1" opacity="0.996078431372549" d="M 195.5 319 L 197 322 L 194 321.5 L 195.5 319 Z " /><path fill="rgb(166,94,41)" stroke="rgb(166,94,41)" stroke-width="1" opacity="0.996078431372549" d="M 132.5 321 L 133 322.5 L 131.5 325 L 130.5 323 Q 133 323.7 132.5 321 Z " /><path fill="rgb(166,94,41)" stroke="rgb(166,94,41)" stroke-width="1" opacity="0.996078431372549" d="M 192.5 323 L 190.5 326 L 189.5 324 L 192.5 323 Z " /><path fill="rgb(166,94,41)" stroke="rgb(166,94,41)" stroke-width="1" opacity="0.996078431372549" d="M 167.5 324 L 167.5 327 Q 165.3 327.8 166 325.5 L 167.5 324 Z " /><path fill="rgb(166,94,41)" stroke="rgb(166,94,41)" stroke-width="1" opacity="0.996078431372549" d="M 381.5 324 L 382.5 326 L 379 328.5 L 379.5 330 L 377.5 331 L 377 328 L 381 325.5 L 381.5 324 Z " /><path fill="rgb(166,94,41)" stroke="rgb(166,94,41)" stroke-width="1" opacity="0.996078431372549" d="M 129.5 326 L 130.5 328 L 129.5 326 Z " /><path fill="rgb(166,94,41)" stroke="rgb(166,94,41)" stroke-width="1" opacity="0.996078431372549" d="M 259 327 L 267 328.5 L 259 329 L 259 327 Z " /><path fill="rgb(166,94,41)" stroke="rgb(166,94,41)" stroke-width="1" opacity="0.996078431372549" d="M 164.5 328 L 165.5 330 L 164.5 328 Z " /><path fill="rgb(166,94,41)" stroke="rgb(166,94,41)" stroke-width="1" opacity="0.996078431372549" d="M 163.5 330 L 164 331.5 Q 160.9 333.3 162.5 335 Q 159.9 335.8 161 332.5 L 163.5 330 Z " /><path fill="rgb(166,94,41)" stroke="rgb(166,94,41)" stroke-width="1" opacity="0.996078431372549" d="M 184.5 330 L 185 333.5 L 183.5 333 L 182 332.5 L 184.5 330 Z " /><path fill="rgb(166,94,41)" stroke="rgb(166,94,41)" stroke-width="1" opacity="0.996078431372549" d="M 276 330 L 281 331 Q 279.3 335.1 283.5 334 L 285 336.5 L 282.5 335 L 280 333.5 L 279.5 332 L 277.5 332 Q 274.9 332.7 276 330 Z " /><path fill="rgb(166,94,41)" stroke="rgb(166,94,41)" stroke-width="1" opacity="0.996078431372549" d="M 375.5 333 L 375.5 336 Q 371.8 337 373 334 L 375.5 333 Z " /><path fill="rgb(166,94,41)" stroke="rgb(166,94,41)" stroke-width="1" opacity="0.996078431372549" d="M 126.5 336 L 128 339.5 L 127 339.5 L 126.5 336 Z " /><path fill="rgb(166,94,41)" stroke="rgb(166,94,41)" stroke-width="1" opacity="0.996078431372549" d="M 287.5 337 L 290 338.5 L 291.5 341 Q 293.8 340.3 293 342.5 L 302 350.5 L 300.5 351 L 295 346.5 L 287.5 337 Z " /><path fill="rgb(166,94,41)" stroke="rgb(166,94,41)" stroke-width="1" opacity="0.996078431372549" d="M 177.5 339 L 177.5 341 L 179 341.5 L 177 342 L 176 344.5 L 176.5 346 L 173 345.5 L 176 344 L 177 341.5 Q 174.8 340.3 177.5 339 Z " /><path fill="rgb(166,94,41)" stroke="rgb(166,94,41)" stroke-width="1" opacity="0.996078431372549" d="M 125.5 340 L 128 341.5 L 126.5 342 L 125.5 340 Z " /><path fill="rgb(166,94,41)" stroke="rgb(166,94,41)" stroke-width="1" opacity="0.996078431372549" d="M 370.5 345 L 371.5 347 L 370.5 345 Z " /><path fill="rgb(166,94,41)" stroke="rgb(166,94,41)" stroke-width="1" opacity="0.996078431372549" d="M 215.5 346 L 216.5 348 L 215.5 346 Z " /><path fill="rgb(166,94,41)" stroke="rgb(166,94,41)" stroke-width="1" opacity="0.996078431372549" d="M 247.5 346 L 247 347.5 L 246.5 350 L 246 347.5 L 247.5 346 Z " /><path fill="rgb(166,94,41)" stroke="rgb(166,94,41)" stroke-width="1" opacity="0.996078431372549" d="M 209.5 347 L 212 348.5 L 210.5 349 L 209.5 347 Z " /><path fill="rgb(166,94,41)" stroke="rgb(166,94,41)" stroke-width="1" opacity="0.996078431372549" d="M 206.5 350 L 209 350.5 L 208 353 L 206 353.5 Q 208.3 354.8 205.5 356 L 203.5 357 L 204.5 355 L 206 354.5 L 205 351.5 L 206.5 350 Z " /><path fill="rgb(166,94,41)" stroke="rgb(166,94,41)" stroke-width="1" opacity="0.996078431372549" d="M 304.5 351 L 307 351.5 L 303.5 353 L 304.5 351 Z " /><path fill="rgb(166,94,41)" stroke="rgb(166,94,41)" stroke-width="1" opacity="0.996078431372549" d="M 321.5 352 L 325 352.5 L 321.5 353 L 321.5 352 Z " /><path fill="rgb(166,94,41)" stroke="rgb(166,94,41)" stroke-width="1" opacity="0.996078431372549" d="M 217.5 354 L 218 356.5 L 217 356.5 L 217.5 354 Z " /><path fill="rgb(166,94,41)" stroke="rgb(166,94,41)" stroke-width="1" opacity="0.996078431372549" d="M 334.5 354 Q 338.3 353 337 356 L 334.5 354 Z " /><path fill="rgb(166,94,41)" stroke="rgb(166,94,41)" stroke-width="1" opacity="0.996078431372549" d="M 167.5 357 L 168.5 359 L 167.5 357 Z " /><path fill="rgb(166,94,41)" stroke="rgb(166,94,41)" stroke-width="1" opacity="0.996078431372549" d="M 371.5 357 L 372 359.5 L 371 359.5 L 371.5 357 Z " /><path fill="rgb(166,94,41)" stroke="rgb(166,94,41)" stroke-width="1" opacity="0.996078431372549" d="M 122.5 359 L 123 361.5 L 122 361.5 L 122.5 359 Z " /><path fill="rgb(166,94,41)" stroke="rgb(166,94,41)" stroke-width="1" opacity="0.996078431372549" d="M 166.5 359 L 167.5 361 L 166.5 359 Z " /><path fill="rgb(166,94,41)" stroke="rgb(166,94,41)" stroke-width="1" opacity="0.996078431372549" d="M 338.5 360 L 337.5 362 L 338.5 360 Z " /><path fill="rgb(166,94,41)" stroke="rgb(166,94,41)" stroke-width="1" opacity="0.996078431372549" d="M 150.5 363 L 152 366.5 L 150 365.5 L 150.5 363 Z " /><path fill="rgb(166,94,41)" stroke="rgb(166,94,41)" stroke-width="1" opacity="0.996078431372549" d="M 197.5 364 L 198.5 366 L 197.5 364 Z " /><path fill="rgb(166,94,41)" stroke="rgb(166,94,41)" stroke-width="1" opacity="0.996078431372549" d="M 338.5 364 L 339.5 366 Q 336.7 366.7 338.5 364 Z " /><path fill="rgb(166,94,41)" stroke="rgb(166,94,41)" stroke-width="1" opacity="0.996078431372549" d="M 163.5 368 L 164 371.5 L 163 371.5 L 163.5 368 Z " /><path fill="rgb(166,94,41)" stroke="rgb(166,94,41)" stroke-width="1" opacity="0.996078431372549" d="M 193.5 370 L 196 370.5 L 193.5 371 L 193.5 370 Z " /><path fill="rgb(166,94,41)" stroke="rgb(166,94,41)" stroke-width="1" opacity="0.996078431372549" d="M 218.5 374 L 219 376.5 L 218 376.5 L 218.5 374 Z " /><path fill="rgb(166,94,41)" stroke="rgb(166,94,41)" stroke-width="1" opacity="0.996078431372549" d="M 149.5 380 L 150 382.5 L 149 382.5 L 149.5 380 Z " /><path fill="rgb(166,94,41)" stroke="rgb(166,94,41)" stroke-width="1" opacity="0.996078431372549" d="M 370.5 382 Q 373.1 381.2 372 384.5 L 371 384.5 L 370.5 382 Z " /><path fill="rgb(166,94,41)" stroke="rgb(166,94,41)" stroke-width="1" opacity="0.996078431372549" d="M 122.5 384 L 123 387.5 L 122 387.5 L 122.5 384 Z " /><path fill="rgb(166,94,41)" stroke="rgb(166,94,41)" stroke-width="1" opacity="0.996078431372549" d="M 219.5 385 L 218.5 387 L 219.5 385 Z " /><path fill="rgb(166,94,41)" stroke="rgb(166,94,41)" stroke-width="1" opacity="0.996078431372549" d="M 263.5 389 L 263.5 391 L 265 391.5 L 263.5 392 Q 260.5 390.5 263.5 389 Z " /><path fill="rgb(166,94,41)" stroke="rgb(166,94,41)" stroke-width="1" opacity="0.996078431372549" d="M 335.5 391 Q 338.5 392.5 335.5 394 L 333.5 395 L 334.5 393 L 336 392.5 L 335.5 391 Z " /><path fill="rgb(166,94,41)" stroke="rgb(166,94,41)" stroke-width="1" opacity="0.996078431372549" d="M 265 397 L 267 397.5 L 265 398.5 L 265 397 Z " /><path fill="rgb(166,94,41)" stroke="rgb(166,94,41)" stroke-width="1" opacity="0.996078431372549" d="M 331.5 397 L 333 397.5 L 329 400 L 328 404 L 326 403.5 L 331.5 397 Z " /><path fill="rgb(166,94,41)" stroke="rgb(166,94,41)" stroke-width="1" opacity="0.996078431372549" d="M 224.5 400 L 225 403.5 L 224 403.5 L 224.5 400 Z " /><path fill="rgb(166,94,41)" stroke="rgb(166,94,41)" stroke-width="1" opacity="0.996078431372549" d="M 366.5 400 L 368 402.5 L 366 401.5 L 366.5 400 Z " /><path fill="rgb(166,94,41)" stroke="rgb(166,94,41)" stroke-width="1" opacity="0.996078431372549" d="M 149.5 401 L 150 403.5 L 149 403.5 L 149.5 401 Z " /><path fill="rgb(166,94,41)" stroke="rgb(166,94,41)" stroke-width="1" opacity="0.996078431372549" d="M 267.5 401 L 268 402.5 L 266 403.5 L 267.5 401 Z " /><path fill="rgb(166,94,41)" stroke="rgb(166,94,41)" stroke-width="1" opacity="0.996078431372549" d="M 365.5 403 L 367 405.5 L 365 404.5 L 365.5 403 Z " /><path fill="rgb(166,94,41)" stroke="rgb(166,94,41)" stroke-width="1" opacity="0.996078431372549" d="M 155.5 405 L 156 407.5 L 155 407.5 L 155.5 405 Z " /><path fill="rgb(166,94,41)" stroke="rgb(166,94,41)" stroke-width="1" opacity="0.996078431372549" d="M 266.5 405 L 268 407.5 Q 264.9 409.3 266.5 411 Q 263.5 411.7 265 408 L 267 407.5 L 266.5 405 Z " /><path fill="rgb(166,94,41)" stroke="rgb(166,94,41)" stroke-width="1" opacity="0.996078431372549" d="M 227 407 Q 230.3 405.9 229 410 L 231.5 410 L 234 410.5 L 235 412.5 L 232 412.5 Q 232.8 409.9 229.5 411 L 227 407 Z " /><path fill="rgb(166,94,41)" stroke="rgb(166,94,41)" stroke-width="1" opacity="0.996078431372549" d="M 317.5 407 L 318 408.5 L 315.5 410 L 315.5 409 Q 318 409.7 317.5 407 Z " /><path fill="rgb(166,94,41)" stroke="rgb(166,94,41)" stroke-width="1" opacity="0.996078431372549" d="M 319.5 407 L 321 409.5 L 320 409.5 L 319.5 407 Z " /><path fill="rgb(166,94,41)" stroke="rgb(166,94,41)" stroke-width="1" opacity="0.996078431372549" d="M 127.5 408 L 128 410.5 L 126 411.5 L 127.5 408 Z " /><path fill="rgb(166,94,41)" stroke="rgb(166,94,41)" stroke-width="1" opacity="0.996078431372549" d="M 184.5 408 L 185 411.5 L 184 411.5 L 184.5 408 Z " /><path fill="rgb(166,94,41)" stroke="rgb(166,94,41)" stroke-width="1" opacity="0.996078431372549" d="M 261.5 409 L 262 411.5 L 261 411.5 L 261.5 409 Z " /><path fill="rgb(166,94,41)" stroke="rgb(166,94,41)" stroke-width="1" opacity="0.996078431372549" d="M 362.5 410 L 364 412.5 L 361 412.5 L 362.5 410 Z " /><path fill="rgb(166,94,41)" stroke="rgb(166,94,41)" stroke-width="1" opacity="0.996078431372549" d="M 308.5 411 L 310.5 414 L 308.5 413 L 306.5 414 L 306.5 413 Q 309 413.7 308.5 411 Z " /><path fill="rgb(166,94,41)" stroke="rgb(166,94,41)" stroke-width="1" opacity="0.996078431372549" d="M 299.5 415 L 300.5 417 L 297.5 418 L 297.5 417 Q 300 417.7 299.5 415 Z " /><path fill="rgb(166,94,41)" stroke="rgb(166,94,41)" stroke-width="1" opacity="0.996078431372549" d="M 245.5 416 L 248 416.5 L 245.5 417 L 245.5 416 Z " /><path fill="rgb(166,94,41)" stroke="rgb(166,94,41)" stroke-width="1" opacity="0.996078431372549" d="M 129.5 417 L 128.5 419 L 129.5 417 Z " /><path fill="rgb(166,94,41)" stroke="rgb(166,94,41)" stroke-width="1" opacity="0.996078431372549" d="M 287.5 421 L 288.5 423 L 287.5 421 Z " /><path fill="rgb(166,94,41)" stroke="rgb(166,94,41)" stroke-width="1" opacity="0.996078431372549" d="M 357.5 421 L 359 421.5 L 356.5 423 L 357.5 421 Z " /><path fill="rgb(166,94,41)" stroke="rgb(166,94,41)" stroke-width="1" opacity="0.996078431372549" d="M 131.5 422 L 133 425.5 L 131 426.5 L 132 424 L 130 423.5 L 131.5 422 Z " /><path fill="rgb(166,94,41)" stroke="rgb(166,94,41)" stroke-width="1" opacity="0.996078431372549" d="M 356.5 424 L 355.5 426 L 351.5 428 L 351.5 427 Q 354.1 427.7 353 425 L 355.5 425 L 356.5 424 Z " /><path fill="rgb(166,94,41)" stroke="rgb(166,94,41)" stroke-width="1" opacity="0.996078431372549" d="M 350.5 429 L 353 429.5 L 349 432.5 L 350.5 429 Z " /><path fill="rgb(166,94,41)" stroke="rgb(166,94,41)" stroke-width="1" opacity="0.996078431372549" d="M 184.5 431 L 185 435.5 L 184 435.5 L 184.5 431 Z " /><path fill="rgb(166,94,41)" stroke="rgb(166,94,41)" stroke-width="1" opacity="0.996078431372549" d="M 345 434 L 348 434.5 L 344 437.5 L 345 434 Z " /><path fill="rgb(166,94,41)" stroke="rgb(166,94,41)" stroke-width="1" opacity="0.996078431372549" d="M 137.5 436 L 139 439 L 137 438.5 L 137.5 436 Z " /><path fill="rgb(166,94,41)" stroke="rgb(166,94,41)" stroke-width="1" opacity="0.996078431372549" d="M 342.5 437 L 342 438.5 L 340.5 441 L 341 439.5 L 342.5 437 Z " /><path fill="rgb(166,94,41)" stroke="rgb(166,94,41)" stroke-width="1" opacity="0.996078431372549" d="M 288.5 438 L 292 439 L 291.5 441 L 288.5 438 Z " /><path fill="rgb(166,94,41)" stroke="rgb(166,94,41)" stroke-width="1" opacity="0.996078431372549" d="M 138.5 440 Q 142.7 438.7 141 443.5 L 140 443.5 Q 141.1 440.2 138.5 441 L 138.5 440 Z " /><path fill="rgb(166,94,41)" stroke="rgb(166,94,41)" stroke-width="1" opacity="0.996078431372549" d="M 292.5 442 Q 298.8 439.8 297 445.5 L 295 444.5 L 294.5 443 Q 292.7 445.5 292.5 442 Z " /><path fill="rgb(166,94,41)" stroke="rgb(166,94,41)" stroke-width="1" opacity="0.996078431372549" d="M 333 442 Q 336.8 440.5 336 443.5 Q 334.5 446.5 333 443.5 L 333 442 Z " /><path fill="rgb(166,94,41)" stroke="rgb(166,94,41)" stroke-width="1" opacity="0.996078431372549" d="M 185.5 445 L 186 448.5 L 185 448.5 L 185.5 445 Z " /><path fill="rgb(166,94,41)" stroke="rgb(166,94,41)" stroke-width="1" opacity="0.996078431372549" d="M 143.5 446 L 145 449.5 L 143 448.5 L 143.5 446 Z " /><path fill="rgb(166,94,41)" stroke="rgb(166,94,41)" stroke-width="1" opacity="0.996078431372549" d="M 303.5 446 L 304 447.5 L 302 448.5 L 303.5 446 Z " /><path fill="rgb(166,94,41)" stroke="rgb(166,94,41)" stroke-width="1" opacity="0.996078431372549" d="M 324.5 447 L 325.5 449 L 324.5 447 Z " /><path fill="rgb(166,94,41)" stroke="rgb(166,94,41)" stroke-width="1" opacity="0.996078431372549" d="M 311.5 450 L 316 450.5 L 311.5 451 L 311.5 450 Z " /><path fill="rgb(166,94,41)" stroke="rgb(166,94,41)" stroke-width="1" opacity="0.996078431372549" d="M 147.5 451 L 150 454.5 L 148.5 454 L 146 452.5 L 147.5 451 Z " /><path fill="rgb(166,94,41)" stroke="rgb(166,94,41)" stroke-width="1" opacity="0.996078431372549" d="M 186.5 455 L 187 458.5 L 186 458.5 L 186.5 455 Z " /><path fill="rgb(166,94,41)" stroke="rgb(166,94,41)" stroke-width="1" opacity="0.996078431372549" d="M 156.5 456 L 157 458.5 L 155 459.5 L 156.5 456 Z " /><path fill="rgb(166,94,41)" stroke="rgb(166,94,41)" stroke-width="1" opacity="0.996078431372549" d="M 152.5 457 L 153.5 459 Q 150.7 459.7 152.5 457 Z " /><path fill="rgb(166,94,41)" stroke="rgb(166,94,41)" stroke-width="1" opacity="0.996078431372549" d="M 159.5 462 L 161.5 466 L 165 467 L 163.5 470 L 159 464.5 L 159.5 462 Z " /><path fill="rgb(166,94,41)" stroke="rgb(166,94,41)" stroke-width="1" opacity="0.996078431372549" d="M 187.5 465 L 188 470.5 L 187 470.5 L 187.5 465 Z " /><path fill="rgb(166,94,41)" stroke="rgb(166,94,41)" stroke-width="1" opacity="0.996078431372549" d="M 185.5 473 L 185.5 476 L 183.5 475 L 183.5 477 L 181 475.5 L 185.5 473 Z " /><path fill="rgb(166,94,41)" stroke="rgb(166,94,41)" stroke-width="1" opacity="0.996078431372549" d="M 174.5 474 L 173.5 476 L 174.5 474 Z " /><path fill="rgb(166,94,41)" stroke="rgb(166,94,41)" stroke-width="1" opacity="0.996078431372549" d="M 176 475 L 178 475.5 L 176 476.5 L 176 475 Z " /><path fill="rgb(166,94,41)" stroke="rgb(166,94,41)" stroke-width="1" opacity="1" d="M 186.5 33 L 194.5 33 L 204 35.5 L 202 36.5 L 204.5 37 L 206.5 37 L 210.5 38 L 218 43.5 L 217 46 Q 222.2 43.9 221 48.5 L 227 52.5 L 225 52.5 L 226.5 55 Q 227.8 52.7 229 55.5 L 232 60.5 L 231.5 62 Q 233.8 61.3 233 63.5 L 238 75.5 L 239 86.5 L 240 87.5 L 240 98.5 L 237 114.5 L 230 130 L 226 131 L 227 133.5 L 223 136.5 L 224 137.5 L 218.5 143 L 215 143.5 Q 217.3 144.8 214.5 146 L 213 145.5 L 213 147 L 209 147 L 209 148.5 L 200.5 152 L 197.5 151 L 197.5 153 L 182.5 153 Q 173.8 151.2 168 146.5 L 167.5 145 Q 166.3 147.3 165 144.5 L 164.5 143 L 163.5 144 L 155 135.5 L 151 129.5 L 153 129.5 L 151.5 127 Q 150.3 129.3 149 126.5 L 147 121.5 L 147.5 120 Q 145.3 120.8 146 118.5 L 143 111.5 L 141 100.5 L 141 86.5 L 142 80 L 144 79.5 L 143 75.5 L 147 64 L 149 63.5 L 149 61.5 Q 148.2 58.9 151.5 60 L 152.5 58 L 150.5 59 L 151.5 57 L 153 56.5 L 153 54.5 L 156.5 50 Q 159.1 50.7 158 48 L 161 48 L 161 46.5 L 165.5 41 L 167.5 40 L 167.5 42 Q 170.1 42.8 169 39.5 L 175.5 36 L 177 36.5 Q 176.1 33.5 180.5 35 L 186.5 33 Z M 156 52 L 154 54 L 157 54 L 156 52 Z " /><path fill="rgb(166,94,41)" stroke="rgb(166,94,41)" stroke-width="1" opacity="1" d="M 314.5 33 Q 334.9 32.1 345 41.5 L 346.5 45 L 347 43.5 L 346.5 42 L 349 46 L 353 48.5 Q 351.9 51.8 354.5 51 L 357 52 L 363 64 L 361 64.5 L 364 65 L 367 75.5 L 366 77.5 L 368 77.5 L 369 82.5 L 369 104.5 L 367 113 Q 364.3 111.9 365 114.5 L 366 116.5 Q 361.3 130.8 351.5 140 Q 348.2 138.9 349 141.5 L 342.5 147 L 340.5 146 L 340.5 148 Q 338.8 144.3 337 147.5 Q 338.1 150.8 335.5 150 Q 327.9 154.9 313.5 153 Q 302.1 150.9 295 144.5 L 295.5 143 L 293.5 144 L 288 136.5 L 291 134.5 L 288.5 134 L 285.5 136 Q 282.8 134.8 285 133.5 L 284.5 130 L 283.5 133 L 282.5 130 L 280 128.5 L 279 123.5 L 279.5 122 L 277.5 123 L 275 116.5 L 276 114.5 L 274 114.5 L 271 102.5 L 271 84.5 L 274 70.5 L 281 56 L 283 55.5 L 282 54.5 L 285 51.5 L 285 50 L 289 50 L 289 48.5 L 288 47.5 L 293.5 42 L 295.5 41 L 299 42 L 298.5 40 L 297 40.5 L 304.5 36 L 304.5 38 Q 307.5 38.7 306 35 L 308.5 35 L 314.5 33 Z M 358 55 L 357 58 L 359 58 L 358 55 Z M 276 70 L 275 74 L 276 74 L 276 70 Z M 345 142 L 345 144 L 347 143 L 345 142 Z M 315 151 L 315 152 L 317 152 L 315 151 Z " /><path fill="rgb(166,94,41)" stroke="rgb(166,94,41)" stroke-width="1" opacity="1" d="M 99.5 139 Q 113.5 138 121 143.5 L 122.5 146 L 125.5 145 L 127.5 148 L 129 147.5 Q 127.9 150.8 130.5 150 L 131.5 149 L 137 154.5 L 137 156.5 L 137.5 158 L 138.5 157 L 142 160.5 L 141.5 162 Q 143.8 161.3 143 163.5 L 146 167.5 L 145 171.5 L 147 172.5 L 147.5 171 L 153 188.5 L 153 209.5 L 151.5 215 L 150.5 213 L 150 216.5 L 151 218.5 L 148 227 L 146 227.5 L 147 229.5 L 143.5 235 L 142 234.5 L 143 236.5 L 136 242.5 L 137 244.5 L 133 246 L 130.5 250 Q 129 247.5 127.5 251 L 125.5 250 L 125 252 L 127 252.5 L 122.5 255 L 120.5 254 L 120.5 256 L 110.5 259 L 96.5 259 L 89 256.5 L 89.5 255 L 87.5 256 L 80 251.5 L 79.5 250 Q 77.8 252.7 76 248.5 L 77 246.5 L 75.5 247 L 72 244.5 L 73 242 L 70.5 243 Q 67.3 241.8 68 238 Q 65.3 239.1 66 236.5 L 62 231.5 L 64 230.5 L 61 230 L 58 222.5 L 55 208.5 L 55 189.5 L 58.5 177 L 60 177.5 L 59 173.5 Q 63.5 162 71.5 154 L 72.5 156 L 73 154 L 75 153.5 L 73 152.5 L 83.5 145 Q 84.8 147.3 86 144.5 Q 85.3 142.3 87.5 143 L 99.5 139 Z M 81 147 L 78 150 L 81 150 L 81 147 Z M 134 152 Q 132 155 135 154 L 134 152 Z " /><path fill="rgb(166,94,41)" stroke="rgb(166,94,41)" stroke-width="1" opacity="1" d="M 401.5 140 Q 416.9 138.1 425 143.5 L 424 146 L 427 145.5 L 426.5 144 L 430 146.5 L 431.5 149 L 433.5 149 L 444 158.5 L 443.5 160 Q 445.8 159.3 445 161.5 L 450 168.5 L 449 171.5 L 450.5 174 L 451.5 172 L 457 192.5 L 457 207.5 L 453 224.5 L 447.5 235 L 446 235.5 L 446 237.5 L 442.5 242 L 439 243.5 L 439.5 245 L 441 244.5 L 433.5 251 L 431.5 250 L 429 251.5 L 431 252.5 L 421.5 258 Q 415.4 257.4 412.5 260 L 403.5 260 L 392 256.5 L 392.5 255 L 389.5 256 L 389.5 255 L 391 254.5 Q 385.6 255.4 384 252.5 L 385 250 L 381.5 251 Q 376.7 248.5 378.5 246 L 376.5 246 L 372 241.5 L 373 239.5 Q 371 241.2 369 237.5 L 361 220.5 L 359 211.5 L 358 197.5 L 359 196.5 L 360 182.5 L 365.5 169 L 367.5 170 L 366 167.5 L 367 166.5 L 369.5 162 L 371 162.5 L 370 160.5 L 374 157.5 Q 371.3 155.8 375.5 154 L 375.5 156 L 379 153.5 L 377 152.5 L 383.5 147 L 385 147.5 Q 384.3 145.3 386.5 146 L 389.5 144 L 391.5 145 L 391.5 143 L 401.5 140 Z M 369 165 L 367 168 L 369 168 L 369 165 Z M 377 242 L 375 244 L 377 245 L 377 242 Z M 421 255 L 422 257 L 424 256 L 421 255 Z " /><path fill="rgb(166,94,41)" stroke="rgb(166,94,41)" stroke-width="1" opacity="1" d="M 225.5 240 Q 236.5 238 241 242.5 L 241 244.5 L 241.5 246 L 242.5 243 Q 252.3 247.7 252 262.5 L 250 262.5 L 251 266.5 L 248.5 271 L 245.5 270 L 245.5 271 L 247 271.5 L 245 272 L 243.5 275 Q 242.3 272.8 241 275.5 Q 242.1 278.8 239.5 278 L 222.5 284 L 220.5 283 L 220.5 285 L 215.5 287 L 214 286.5 L 213.5 288 L 211 287 L 208.5 291 L 206.5 290 L 204.5 293 L 194.5 299 L 191 298 L 192 300.5 L 188 302.5 L 187.5 304 L 186 303.5 L 186 306 L 181 306 L 181 307.5 Q 183.8 309.3 179.5 311 L 177 310 L 178 312.5 L 173 314.5 L 176 315.5 L 170 320.5 Q 172.5 322 169 323.5 L 167.5 326 L 166 325.5 L 167 327.5 L 164.5 331 Q 162.8 328.3 161 332.5 L 162 335.5 L 154.5 354 L 153 353.5 L 154 357.5 L 152 361.5 L 150 371.5 L 150 379.5 L 149 380.5 L 149 403.5 L 152 422 Q 154.7 423.1 154 420.5 L 155 419.5 L 155 408.5 L 156 407.5 L 157 390.5 L 162.5 370 L 163.5 372 L 164 368.5 L 164 366.5 L 171.5 350 L 173 349.5 L 173 347.5 Q 172.1 344.5 176.5 346 L 175 343.5 L 182.5 333 L 184.5 334 Q 184.2 326.7 189.5 325 Q 190.8 327.3 192 324.5 L 191 323.5 L 194.5 320 L 194.5 322 Q 197.8 323.1 197 320.5 L 196 318 L 206.5 311 L 208.5 312 L 209.5 309 L 216.5 305 L 218.5 306 L 218.5 304 L 226.5 301 L 228.5 302 L 229.5 299 L 249.5 293 L 259.5 291 L 276.5 290 L 277.5 289 L 279.5 290 Q 277.7 287.7 282 285.5 L 286.5 274 L 287.5 276 L 288 273.5 L 288 271.5 L 293.5 260 L 297 260.5 L 296 256.5 L 305.5 246 L 310 245.5 L 309.5 244 L 312.5 245 L 315.5 244 L 315.5 246 L 319 247.5 L 321 252.5 L 320.5 254 L 323 255.5 L 322 258.5 L 325 259.5 L 328.5 266 L 331 267.5 L 330.5 269 L 333.5 268 L 343 271.5 Q 340.8 272.8 343.5 274 L 346 273.5 L 344 272.5 L 345.5 272 L 351 275.5 L 350.5 277 L 352.5 276 L 365 286 L 365.5 290 L 366 288 Q 368.7 286.9 368 289.5 L 369.5 289 L 381.5 288 L 381.5 290 L 383.5 289 L 385 289.5 Q 385.8 287.3 383.5 288 L 383.5 287 L 392.5 286 L 394 289.5 Q 392.8 294.3 395 295.5 L 395 297.5 Q 392.6 310.1 386.5 319 L 385.5 316 Q 386 322.5 382.5 325 L 381 324.5 L 382 326.5 Q 380.3 330.8 378.5 328 Q 375.9 327.2 377 330.5 L 379 330.5 L 375.5 335 L 373 334 Q 371.9 336.7 374.5 336 L 374 337.5 Q 369.4 345.4 371 359.5 L 372 360.5 L 372 382 L 370 382.5 Q 372.5 384 371 389.5 L 367 404.5 L 363.5 411 Q 362.3 408.8 361 411.5 L 361.5 413 L 363 412.5 Q 363.8 414.8 361.5 414 L 361 416.5 L 359 421 L 357 421.5 Q 359.8 423.3 355.5 425 Q 352.2 423.9 353 426.5 L 355 426.5 L 351.5 430 Q 350.3 427.8 349 430.5 L 349 434 Q 343.8 431.9 345 436.5 Q 343 440.2 341 438.5 L 338.5 442 L 337 441.5 L 336.5 443 L 333 442 L 334 444.5 L 320.5 450 L 306.5 450 L 301 448 L 300.5 446 L 298.5 446 L 297 446 L 297 442 L 291.5 442 L 290.5 440 L 292 440.5 Q 292.8 438.3 290.5 439 L 287 436.5 L 287 434 Q 284 435.3 285 431.5 L 284 426 L 286 425.5 L 285 423.5 L 298.5 416 L 300.5 417 L 301.5 414 L 307.5 412 L 309.5 413 L 309.5 411 L 316.5 408 L 318 408.5 L 319.5 406 L 326.5 402 L 326.5 404 Q 328.8 404.8 328 402.5 L 329 400 L 333 397.5 Q 330.3 395.8 334.5 394 L 336 393.5 L 336 391.5 L 339 383.5 L 339 366.5 L 340 365.5 L 336 357.5 L 332.5 354 L 321.5 352 L 320.5 353 L 305.5 353 L 305.5 352 L 307 351.5 L 304.5 351 L 301.5 352 L 301.5 350 L 299.5 351 Q 296.8 349.8 299 348.5 L 295.5 345 L 294.5 346 L 285 336.5 L 283.5 334 L 281 334 Q 282.5 330.2 279.5 331 L 276.5 330 L 274.5 331 L 271.5 329 L 259 327 Q 260.4 330.7 254.5 329 L 251.5 331 L 249.5 330 Q 251.1 331.8 248 333.5 L 247 335.5 L 247 346.5 L 253 367.5 L 264 390.5 L 263.5 392 Q 265.8 391.3 265 393.5 L 266 396.5 L 265 398.5 L 267 398.5 L 266 403.5 L 268 403.5 L 267.5 406 L 266 405.5 L 267 407.5 L 265 408 L 266 411.5 L 259.5 416 L 248.5 417 L 237.5 415 L 233 412.5 L 234 410.5 L 231 411.5 L 231.5 410 L 229 410 Q 230.7 405.9 226.5 407 Q 223.6 405.4 224.5 400 L 223.5 402 L 218 385.5 Q 219.5 380 217 378.5 L 217 357.5 L 218 354.5 Q 215.5 353 217 347.5 L 215.5 346 L 213 346.5 Q 213.8 349.1 210.5 348 Q 212.2 350 208.5 352 L 208.5 350 L 205 351.5 Q 208.8 353.3 205.5 355 L 204 355.5 L 205 356.5 L 202 359.5 L 195.5 370 L 193 370.5 L 195 371.5 L 194 374 L 192 374.5 L 193 376.5 L 190 381.5 L 185 400.5 Q 186.8 406.7 184 408.5 L 184 435.5 L 185 436.5 L 185 448.5 L 187 459.5 L 187 473.5 Q 185.1 478.1 177.5 477 L 177.5 475 L 174.5 476 L 167 471.5 L 166.5 470 Q 164.8 472.8 163 468.5 L 165 468.5 Q 165.8 466.3 163.5 467 L 161.5 466 L 161.5 468 L 153 459.5 Q 155.3 458.3 152.5 457 L 151.5 458 L 148 454.5 L 149 452.5 L 145 450.5 Q 145.8 446.8 143.5 446 Q 142.3 448.2 141 445.5 L 141 440 L 138.5 440 L 139 438.5 L 138.5 437 Q 137.3 439.2 136 436.5 L 131 424.5 L 132 422.5 L 130 422.5 L 127 414.5 L 123 394.5 L 122 362.5 L 123 361.5 L 123 353.5 L 124 352.5 L 125 341.5 L 130.5 324 L 132 324.5 L 131 321.5 L 134.5 314 Q 135.8 316.3 137 313.5 L 135 312.5 L 139 304 L 141 303.5 L 141 301.5 L 142.5 299 L 145 300 L 144.5 297 L 143 297.5 L 148.5 290 L 151 288.5 L 151 286.5 L 152.5 284 Q 153.8 286.3 155 283.5 Q 152.8 282.3 155.5 281 L 157 281.5 Q 156.3 277.8 158.5 277 L 161 278 L 160 275.5 L 165.5 270 L 169 269.5 Q 166.8 268.3 169.5 267 L 171 267.5 L 171.5 265 L 173 265.5 L 176.5 261 L 191.5 252 L 193.5 253 L 193.5 251 L 195.5 252 L 195.5 250 L 197.5 251 L 197.5 249 L 199.5 250 L 201.5 247 L 225.5 240 Z M 245 248 L 245 250 L 247 249 L 245 248 Z M 305 248 L 303 250 L 305 250 L 305 248 Z M 326 264 Q 324 267 327 266 L 326 264 Z M 165 272 L 163 274 L 165 274 L 165 272 Z M 155 285 L 155 286 L 157 286 L 155 285 Z M 201 316 L 199 318 L 201 318 L 201 316 Z M 288 337 L 290 340 L 290 339 L 288 337 Z M 292 341 L 293 343 Q 294 340 292 341 Z M 247 347 L 246 350 L 247 350 L 247 347 Z M 335 354 L 337 356 Q 338 353 335 354 Z M 151 363 L 150 366 L 151 366 L 151 363 Z M 219 374 L 218 377 L 219 377 L 219 374 Z M 128 408 L 127 411 L 128 411 L 128 408 Z M 262 409 L 261 412 L 262 412 L 262 409 Z M 157 456 L 156 459 L 157 459 L 157 456 Z M 160 462 L 159 465 L 160 465 L 160 462 Z M 183 474 L 182 476 L 185 475 L 183 474 Z " /><path fill="rgb(166,94,41)" stroke="rgb(166,94,41)" stroke-width="1" opacity="1" d="M 163.5 332 L 162.5 334 L 163.5 332 Z " /></svg>